<svg xmlns="http://www.w3.org/2000/svg" viewBox="0 0 400.39 387.11"><defs><style>.cls-1{fill:#fff;}.cls-2{fill:#30f2a2;}.cls-3{fill:#14cc80;}</style></defs><title>Buildkite logo (portrait version) for dark backgrounds</title><g id="Layer_2" data-name="Layer 2"><g id="Layer_1-2" data-name="Layer 1"><path class="cls-1" d="M27.82,308.92c14.91,0,23.33,8.74,23.33,20.62,0,7.89-4.75,14.26-11.12,16.42,7.45,1.84,13.5,8.64,13.5,18.14,0,12.42-9.29,21.39-23.66,21.39H.28V308.92Zm-2.27,31.64c6.81,0,10.91-3.78,10.91-9.61s-3.78-9.51-11-9.51H15v19.12Zm1.52,32.51c7.23,0,11.55-3.78,11.55-9.94s-3.89-10.26-11.34-10.26H15v20.2Z"/><path class="cls-1" d="M94.78,379.76c-2.92,5-9.07,7.13-14.69,7.13-12.85,0-20.19-9.39-20.19-20.95V332.35H74.26V363c0,5.94,3,10.7,9.72,10.7,6.37,0,10-4.32,10-10.48V332.35h14.37v43.53a86.48,86.48,0,0,0,.54,9.61H95.21A37.25,37.25,0,0,1,94.78,379.76Z"/><path class="cls-1" d="M127.07,306a8.86,8.86,0,1,1-8.85,9A8.85,8.85,0,0,1,127.07,306Zm-7.13,79.49V332.35h14.37v53.14Z"/><path class="cls-1" d="M145.86,385.49V307.3h14.37v78.19Z"/><path class="cls-1" d="M221.44,375.88c0,3.56.21,7.45.43,9.61H208.15a37.33,37.33,0,0,1-.54-6.16c-2.38,4.22-7.77,7.46-14.9,7.46-15.12,0-25.92-11.88-25.92-28,0-15.55,10.47-27.75,25.49-27.75,9.18,0,13.5,3.78,15,6.58V307.3h14.15Zm-27-1.95c7.35,0,13.07-5.61,13.07-15.22s-5.72-14.8-13.07-14.8-13.17,5.4-13.17,14.9S186.87,373.93,194.43,373.93Z"/><path class="cls-1" d="M262.45,354.71l21.7,30.78h-17.6l-14-20.31-5.94,6.27v14H232.21V307.3h14.36v44.82l18.36-19.77h18.79Z"/><path class="cls-1" d="M296.92,306a8.86,8.86,0,1,1-8.85,9A8.85,8.85,0,0,1,296.92,306Zm-7.12,79.49V332.35h14.36v53.14Z"/><path class="cls-1" d="M312.26,332.35c5.62,0,8.21-3.67,8.21-8.42v-7.45h13v15.87h10.69V345.1H333.43v22.24c0,4.65,2.16,6.16,6.26,6.16a20.65,20.65,0,0,0,4.43-.43V385a21.31,21.31,0,0,1-8.1,1.3c-10.37,0-16.85-6.16-16.85-16.42V345.1h-6.91"/><path class="cls-1" d="M399.63,370.26c-2.7,9.18-11.12,16.85-24.19,16.85-14.58,0-27.43-10.48-27.43-28.4,0-17,12.52-28,26.13-28,16.42,0,26.25,10.48,26.25,27.54,0,2.05-.22,4.22-.22,4.43h-38c.33,7,6.27,12.1,13.4,12.1,6.69,0,10.37-3.35,12.09-8.1Zm-13.39-17.39c-.22-5.29-3.67-10.47-11.88-10.47a11.49,11.49,0,0,0-11.88,10.47Z"/><polygon class="cls-2" points="0 0 133.43 66.18 133.43 199.61 0 133.43 0 0"/><polygon class="cls-2" points="267.93 0 400.3 66.18 267.93 133.43 267.93 0"/><polygon class="cls-3" points="267.93 0 133.43 66.18 133.43 199.61 267.93 133.43 267.93 0"/><polygon class="cls-3" points="400.3 66.18 267.93 133.43 267.93 266.86 400.3 199.61 400.3 66.18"/></g></g></svg>