<svg width="176" height="31" xmlns="http://www.w3.org/2000/svg"><g fill="none" fill-rule="evenodd"><path fill="#00FF93" d="M0 0l15.267 7.682V23.17L0 15.488zM30.655 0l15.144 7.682-15.144 7.806z"/><path fill="#00B368" d="M30.655 0L15.266 7.682V23.17l15.389-7.682z"/><path fill="#00B368" d="M45.8 7.682l-15.145 7.806v15.489l15.144-7.806z"/><g fill="#FFF"><path d="M64.833 19.146c2.063 0 3.295-1.079 3.295-2.836 0-1.727-1.108-2.93-3.234-2.93h-3.511v5.766h3.45zm-.432-9.28c1.94 0 3.111-1.08 3.111-2.744 0-1.665-1.078-2.713-3.141-2.713h-2.988v5.457H64.4zm.647-9.033c4.25 0 6.653 2.497 6.653 5.888 0 2.25-1.355 4.07-3.172 4.687 2.125.524 3.85 2.466 3.85 5.18 0 3.545-2.649 6.104-6.745 6.104h-8.44V.832h7.854zM84.688 21.058c-.832 1.418-2.588 2.035-4.19 2.035-3.665 0-5.76-2.683-5.76-5.982V7.523h4.097v8.756c0 1.696.863 3.052 2.772 3.052 1.818 0 2.865-1.233 2.865-2.99V7.523h4.096v12.425c0 1.172.093 2.22.154 2.744h-3.911c-.062-.308-.123-1.018-.123-1.634M92.415 22.692h4.097V7.523h-4.097v15.17zM94.448 0c1.417 0 2.526 1.14 2.526 2.559a2.512 2.512 0 0 1-2.526 2.497c-1.386 0-2.526-1.14-2.526-2.497 0-1.418 1.14-2.559 2.526-2.559zM100.35 22.692h4.097V.37h-4.096zM114.754 19.393c2.094 0 3.726-1.603 3.726-4.347 0-2.713-1.632-4.224-3.726-4.224-2.095 0-3.758 1.541-3.758 4.254 0 2.714 1.601 4.317 3.758 4.317zm7.7.555c0 1.017.062 2.127.123 2.744h-3.912a10.521 10.521 0 0 1-.153-1.758c-.678 1.203-2.218 2.128-4.251 2.128-4.312 0-7.393-3.391-7.393-7.986 0-4.44 2.988-7.923 7.27-7.923 2.618 0 3.85 1.079 4.281 1.88V.37h4.035v19.578zM134.697 13.906l6.19 8.787h-5.02l-4.004-5.796-1.694 1.788v4.008h-4.097V.37h4.097v12.795l5.236-5.642h5.36zM143.04 22.692h4.096V7.523h-4.097v15.17zM145.071 0c1.417 0 2.526 1.14 2.526 2.559a2.512 2.512 0 0 1-2.526 2.497c-1.386 0-2.525-1.14-2.525-2.497 0-1.418 1.14-2.559 2.525-2.559zM149.992 7.523c1.602 0 2.341-1.048 2.341-2.405V2.991h3.696v4.532h3.05v3.638h-3.05v6.351c0 1.326.616 1.757 1.787 1.757.493 0 1.047-.06 1.263-.123v3.392c-.37.154-1.109.37-2.31.37-2.957 0-4.805-1.758-4.805-4.686V11.16h-1.972M171.639 13.38c-.062-1.51-1.048-2.99-3.388-2.99-2.126 0-3.296 1.603-3.389 2.99h6.777zm3.82 4.965c-.771 2.62-3.173 4.81-6.9 4.81-4.159 0-7.824-2.991-7.824-8.11 0-4.84 3.573-7.985 7.454-7.985 4.682 0 7.485 2.991 7.485 7.862 0 .586-.062 1.203-.062 1.264H164.77c.092 2.005 1.786 3.453 3.82 3.453 1.909 0 2.957-.955 3.45-2.312l3.418 1.018z"/></g></g></svg>