<svg xmlns="http://www.w3.org/2000/svg" viewBox="0 0 400.11 81.11"><title>Buildkite wordmark</title><g id="Layer_2" data-name="Layer 2"><g id="Layer_1-2" data-name="Layer 1"><path d="M27.54,2.92c14.9,0,23.33,8.74,23.33,20.62,0,7.89-4.75,14.26-11.13,16.42C47.2,41.8,53.25,48.6,53.25,58.1c0,12.42-9.29,21.39-23.66,21.39H0V2.92ZM25.27,34.56c6.81,0,10.91-3.78,10.91-9.61s-3.78-9.51-11-9.51H14.69V34.56Zm1.51,32.51c7.24,0,11.56-3.78,11.56-9.94S34.45,46.87,27,46.87H14.69v20.2Z"/><path d="M94.5,73.76c-2.92,5-9.07,7.13-14.69,7.13-12.85,0-20.2-9.39-20.2-21V26.35H74V57c0,5.94,3,10.7,9.72,10.7,6.37,0,10-4.32,10-10.48V26.35h14.37V69.88a86.48,86.48,0,0,0,.54,9.61H94.93A37.25,37.25,0,0,1,94.5,73.76Z"/><path d="M126.79,0a8.86,8.86,0,1,1-8.86,9A8.85,8.85,0,0,1,126.79,0Zm-7.13,79.49V26.35H134V79.49Z"/><path d="M145.58,79.49V1.3H160V79.49Z"/><path d="M221.15,69.88c0,3.56.22,7.45.44,9.61H207.87a36.25,36.25,0,0,1-.54-6.16c-2.38,4.22-7.78,7.46-14.9,7.46-15.12,0-25.92-11.88-25.92-28,0-15.55,10.47-27.75,25.48-27.75,9.18,0,13.5,3.78,15,6.58V1.3h14.14Zm-27-1.95c7.35,0,13.07-5.61,13.07-15.22s-5.72-14.8-13.07-14.8S181,43.31,181,52.81,186.59,67.93,194.15,67.93Z"/><path d="M262.16,48.71l21.71,30.78h-17.6l-14-20.31-5.94,6.27v14H231.92V1.3h14.37V46.12l18.36-19.77h18.79Z"/><path d="M296.64,0a8.86,8.86,0,1,1-8.85,9A8.85,8.85,0,0,1,296.64,0Zm-7.12,79.49V26.35h14.36V79.49Z"/><path d="M312,26.35c5.61,0,8.21-3.67,8.21-8.42V10.48h13V26.35h10.69V39.1H333.15V61.34c0,4.65,2.16,6.16,6.26,6.16a20.65,20.65,0,0,0,4.43-.43V79a21.31,21.31,0,0,1-8.1,1.3c-10.37,0-16.85-6.16-16.85-16.42V39.1H312"/><path d="M399.35,64.26c-2.7,9.18-11.12,16.85-24.19,16.85-14.58,0-27.43-10.48-27.43-28.4,0-17,12.52-28,26.13-28,16.42,0,26.25,10.48,26.25,27.54,0,2-.22,4.22-.22,4.43h-38c.33,7,6.27,12.1,13.4,12.1,6.69,0,10.36-3.35,12.09-8.1ZM386,46.87c-.22-5.29-3.67-10.47-11.88-10.47A11.49,11.49,0,0,0,362.2,46.87Z"/></g></g></svg>