<svg xmlns="http://www.w3.org/2000/svg" version="1.1" xmlns:xlink="http://www.w3.org/1999/xlink" xmlns:svgjs="http://svgjs.com/svgjs" viewBox="0 0 48 48" height="48" width="48"><title>office desk (From Streamline App : https://app.streamlineicons.com)</title><g transform="matrix(2,0,0,2,0,0)"><path d="M 1.5,3.5h11c0.552,0,1,0.448,1,1v7c0,0.552-0.448,1-1,1h-11c-0.552,0-1-0.448-1-1v-7 C0.5,3.948,0.948,3.5,1.5,3.5z " stroke="#000000" fill="none" stroke-width="1" stroke-linecap="round" stroke-linejoin="round"></path><path d="M 5.5,12.5h3v3h-3V12.5z " stroke="#000000" fill="none" stroke-width="1" stroke-linecap="round" stroke-linejoin="round"></path><path d="M 23.5,17c0,0.828-0.672,1.5-1.5,1.5H2c-0.828,0-1.5-0.672-1.5-1.5 s0.672-1.5,1.5-1.5h20C22.828,15.5,23.5,16.172,23.5,17z " stroke="#000000" fill="none" stroke-width="1" stroke-linecap="round" stroke-linejoin="round"></path><path d="M 18.5,12.5h3v3h-3V12.5z " stroke="#000000" fill="none" stroke-width="1" stroke-linecap="round" stroke-linejoin="round"></path><path d="M 19.5,12.5v-2 " stroke="#000000" fill="none" stroke-width="1" stroke-linecap="round" stroke-linejoin="round"></path><path d="M 20.5,12.5l1.5-2 " stroke="#000000" fill="none" stroke-width="1" stroke-linecap="round" stroke-linejoin="round"></path><path d="M 4.5,22.5 c0,0.552-0.448,1-1,1s-1-0.448-1-1v-4h2V22.5z " stroke="#000000" fill="none" stroke-width="1" stroke-linecap="round" stroke-linejoin="round"></path><path d="M 18.5,22.5c0,0.552,0.448,1,1,1s1-0.448,1-1v-4h-2V22.5z " stroke="#000000" fill="none" stroke-width="1" stroke-linecap="round" stroke-linejoin="round"></path><path d="M 11.5,15.5v3 " stroke="#000000" fill="none" stroke-width="1" stroke-linecap="round" stroke-linejoin="round"></path><path d="M 19.5,2.5v2 l1.5,1 " stroke="#000000" fill="none" stroke-width="1" stroke-linecap="round" stroke-linejoin="round"></path><path d="M 19.5,0.5c2.209,0,4,1.791,4,4s-1.791,4-4,4s-4-1.791-4-4S17.291,0.5,19.5,0.5z " stroke="#000000" fill="none" stroke-width="1" stroke-linecap="round" stroke-linejoin="round"></path><path d="M 6.5,10.5h1" stroke="#000000" fill="none" stroke-width="1" stroke-linecap="round" stroke-linejoin="round"></path></g></svg>