<svg xmlns="http://www.w3.org/2000/svg" version="1.1" xmlns:xlink="http://www.w3.org/1999/xlink" xmlns:svgjs="http://svgjs.com/svgjs" viewBox="0 0 48 48" height="48" width="48"><title>saving piggy dollars (From Streamline App : https://app.streamlineicons.com)</title><g transform="matrix(2,0,0,2,0,0)"><path d="M 15.026,19.957c1.395-1.024,2.236-2.638,2.274-4.368c0-3.312-3.222-6-7.2-6c-0.785,0-1.567,0.109-2.322,0.325 c-0.45-0.633-1.081-1.115-1.809-1.383c-0.261-0.09-0.546,0.049-0.636,0.31C5.316,8.892,5.306,8.946,5.306,9v2.14 C4.495,11.742,3.869,12.56,3.5,13.5h-1C2.224,13.5,2,13.724,2,14v3c0,0.276,0.224,0.5,0.5,0.5h1 c0.401,1.071,1.101,2.004,2.018,2.687l-0.626,1.7c-0.246,0.615,0.054,1.314,0.669,1.559c0.615,0.246,1.314-0.054,1.559-0.669 c0.008-0.02,0.015-0.04,0.022-0.06l0.547-1.484c1.702,0.51,3.522,0.47,5.2-0.113l0.589,1.6c0.213,0.628,0.894,0.964,1.522,0.752 c0.628-0.213,0.964-0.894,0.752-1.522c-0.007-0.02-0.014-0.04-0.022-0.06L15.026,19.957z " stroke="#000000" fill="none" stroke-width="1" stroke-linecap="round" stroke-linejoin="round"></path><path d="M 17.3,15.589c1.6,0,2.4-0.8,2.4-2 " stroke="#000000" fill="none" stroke-width="1" stroke-linecap="round" stroke-linejoin="round"></path><path d="M 6.754,14c0.138,0,0.25,0.112,0.25,0.25s-0.112,0.25-0.25,0.25s-0.25-0.112-0.25-0.25S6.616,14,6.754,14 " stroke="#000000" fill="none" stroke-width="1" stroke-linecap="round" stroke-linejoin="round"></path><path d="M 10.747,6.773 c-0.346-3.099,1.885-5.892,4.984-6.238s5.892,1.885,6.238,4.984c0.203,1.816-0.485,3.618-1.847,4.836 " stroke="#000000" fill="none" stroke-width="1" stroke-linecap="round" stroke-linejoin="round"></path><path d="M 16.504,3V2 " stroke="#000000" fill="none" stroke-width="1" stroke-linecap="round" stroke-linejoin="round"></path><path d="M 18,3h-2.029 c-0.741,0.001-1.342,0.602-1.341,1.343c0,0.547,0.333,1.04,0.841,1.244l2.064,0.826c0.688,0.277,1.021,1.058,0.744,1.746 C18.075,8.666,17.584,8.999,17.037,9H15 " stroke="#000000" fill="none" stroke-width="1" stroke-linecap="round" stroke-linejoin="round"></path><path d="M 16.504,10V9" stroke="#000000" fill="none" stroke-width="1" stroke-linecap="round" stroke-linejoin="round"></path></g></svg>