<svg xmlns="http://www.w3.org/2000/svg" version="1.1" xmlns:xlink="http://www.w3.org/1999/xlink" xmlns:svgjs="http://svgjs.com/svgjs" viewBox="0 0 48 48" height="48" width="48"><title>baby care body (From Streamline App : https://app.streamlineicons.com)</title><g transform="matrix(2,0,0,2,0,0)"><path d="M 12.361,13.846c-0.191,0.199-0.508,0.206-0.707,0.015c-0.005-0.005-0.01-0.01-0.015-0.015l-2.074-2.164 c-0.439-0.438-0.548-1.108-0.27-1.663l0,0c0.356-0.711,1.221-0.999,1.932-0.643c0.138,0.069,0.264,0.16,0.373,0.269l0.4,0.4 l0.4-0.4c0.562-0.563,1.474-0.563,2.036-0.001c0.11,0.11,0.201,0.236,0.271,0.375l0,0c0.278,0.555,0.169,1.225-0.27,1.663 L12.361,13.846z " stroke="#000000" fill="none" stroke-width="1" stroke-linecap="round" stroke-linejoin="round"></path><path d="M 22.932,2.6l-4.304-2.055c-0.21-0.095-0.458-0.033-0.6,0.149C16.577,2.532,14.341,3.573,12,3.5 C9.66,3.572,7.424,2.531,5.974,0.694c-0.142-0.182-0.39-0.244-0.6-0.149L1.068,2.6c-0.472,0.226-0.69,0.777-0.5,1.265L1.7,6.761 c0.169,0.433,0.613,0.693,1.073,0.627L5.5,7v10.525c-0.001,0.258,0.194,0.474,0.45,0.5C8.249,18.256,9.999,20.19,10,22.5 c0,0.552,0.448,1,1,1h2c0.552,0,1-0.448,1-1c0-2.311,1.75-4.247,4.05-4.478c0.256-0.026,0.451-0.242,0.45-0.5V7l2.732,0.388 c0.46,0.066,0.904-0.194,1.073-0.627l1.127-2.9C23.619,3.375,23.402,2.826,22.932,2.6z" stroke="#000000" fill="none" stroke-width="1" stroke-linecap="round" stroke-linejoin="round"></path></g></svg>