<svg xmlns="http://www.w3.org/2000/svg" version="1.1" xmlns:xlink="http://www.w3.org/1999/xlink" xmlns:svgjs="http://svgjs.com/svgjs" viewBox="0 0 48 48" height="48" width="48"><title>messages bubble smile (From Streamline App : https://app.streamlineicons.com)</title><g transform="matrix(2,0,0,2,0,0)"><path d="M 12.111,1c-6.351,0-11.5,4.253-11.5,9.5c0.054,2.646,1.304,5.125,3.4,6.741L1.611,23l6.372-3.641 C9.318,19.784,10.71,20,12.111,20c6.351,0,11.5-4.253,11.5-9.5S18.462,1,12.111,1z " stroke="#000000" fill="none" stroke-width="1" stroke-linecap="round" stroke-linejoin="round"></path><path d="M 6.611,8.5c0-1.105,0.895-2,2-2s2,0.895,2,2 " stroke="#000000" fill="none" stroke-width="1" stroke-linecap="round" stroke-linejoin="round"></path><path d="M 17.611,8.5c0-1.105-0.895-2-2-2s-2,0.895-2,2 " stroke="#000000" fill="none" stroke-width="1" stroke-linecap="round" stroke-linejoin="round"></path><path d="M 14.611,12c0,1.381-1.119,2.5-2.5,2.5s-2.5-1.119-2.5-2.5" stroke="#000000" fill="none" stroke-width="1" stroke-linecap="round" stroke-linejoin="round"></path></g></svg>