<svg xmlns="http://www.w3.org/2000/svg" version="1.1" xmlns:xlink="http://www.w3.org/1999/xlink" xmlns:svgjs="http://svgjs.com/svgjs" viewBox="0 0 48 48" height="48" width="48"><title>hospital house (From Streamline App : https://app.streamlineicons.com)</title><g transform="matrix(2,0,0,2,0,0)"><path d="M 16.5,13c0-0.276-0.224-0.5-0.5-0.5h-2.5V10c0-0.276-0.224-0.5-0.5-0.5h-2c-0.276,0-0.5,0.224-0.5,0.5v2.5H8 c-0.276,0-0.5,0.224-0.5,0.5v2c0,0.276,0.224,0.5,0.5,0.5h2.5V18c0,0.276,0.224,0.5,0.5,0.5h2c0.276,0,0.5-0.224,0.5-0.5v-2.5H16 c0.276,0,0.5-0.224,0.5-0.5V13z " stroke="#000000" fill="none" stroke-width="1" stroke-linecap="round" stroke-linejoin="round"></path><path d="M 3.5,11.5v11c0,0.552,0.448,1,1,1h15c0.552,0,1-0.448,1-1v-11 " stroke="#000000" fill="none" stroke-width="1" stroke-linecap="round" stroke-linejoin="round"></path><path d="M 0.5,11L12,0.5L23.5,11" stroke="#000000" fill="none" stroke-width="1" stroke-linecap="round" stroke-linejoin="round"></path></g></svg>