<svg width="109" height="22" viewBox="0 0 109 22" xmlns="http://www.w3.org/2000/svg"><title>Buildkite</title><g fill="#000" fill-rule="evenodd"><path d="M7.317 17.55c1.89 0 3.018-.988 3.018-2.6 0-1.582-1.015-2.684-2.962-2.684H4.157v5.285h3.16zm-.395-8.506c1.777 0 2.85-.99 2.85-2.515 0-1.528-.988-2.49-2.88-2.49H4.158v5.004h2.765zm.592-8.28c3.894 0 6.094 2.288 6.094 5.397 0 2.064-1.24 3.732-2.906 4.297 1.947.48 3.527 2.26 3.527 4.748 0 3.25-2.427 5.596-6.18 5.596H.32V.764h7.194zM25.503 19.303c-.762 1.3-2.37 1.865-3.837 1.865-3.358 0-5.276-2.46-5.276-5.483v-8.79h3.752v8.027c0 1.555.79 2.798 2.54 2.798 1.664 0 2.624-1.13 2.624-2.74V6.895h3.752v11.39c0 1.074.085 2.035.14 2.515h-3.582c-.057-.282-.113-.932-.113-1.497M32.58 20.8h3.754V6.897H32.58V20.8zM34.444 0c1.298 0 2.314 1.046 2.314 2.346 0 1.243-1.016 2.29-2.314 2.29-1.27 0-2.313-1.047-2.313-2.29 0-1.3 1.044-2.346 2.313-2.346zM39.85 20.8h3.752V.34H39.85M53.043 17.777c1.918 0 3.413-1.47 3.413-3.985 0-2.487-1.495-3.872-3.413-3.872-1.92 0-3.442 1.413-3.442 3.9s1.468 3.957 3.443 3.957zm7.053.508c0 .933.056 1.95.113 2.516h-3.584c-.057-.282-.14-.96-.14-1.61-.622 1.102-2.033 1.95-3.895 1.95-3.95 0-6.77-3.11-6.77-7.32 0-4.07 2.737-7.263 6.658-7.263 2.4 0 3.527.99 3.922 1.724V.34h3.696v17.945zM71.31 12.747l5.67 8.055h-4.598l-3.668-5.313-1.552 1.638v3.674H63.41V.34h3.752v11.73l4.797-5.173h4.908M78.95 20.8h3.753V6.897H78.95V20.8zM80.814 0c1.298 0 2.314 1.046 2.314 2.346 0 1.243-1.016 2.29-2.314 2.29-1.27 0-2.313-1.047-2.313-2.29C78.5 1.046 79.544 0 80.813 0zM85.32 6.896c1.467 0 2.144-.96 2.144-2.204v-1.95h3.386v4.154h2.793v3.335H90.85v5.823c0 1.215.564 1.61 1.636 1.61.452 0 .96-.056 1.157-.112v3.11c-.34.14-1.016.34-2.116.34-2.708 0-4.4-1.612-4.4-4.297V10.23H85.32M105.147 12.266c-.056-1.385-.96-2.742-3.103-2.742-1.947 0-3.02 1.47-3.103 2.742h6.207zm3.5 4.55c-.707 2.402-2.907 4.41-6.32 4.41-3.81 0-7.167-2.742-7.167-7.434 0-4.437 3.273-7.32 6.828-7.32 4.288 0 6.855 2.74 6.855 7.207 0 .536-.056 1.1-.056 1.158h-9.93c.084 1.837 1.635 3.165 3.498 3.165 1.75 0 2.708-.876 3.16-2.12l3.13.933z"/></g></svg>